<?xml version="1.0" standalone="no"?>
<!DOCTYPE svg PUBLIC "-//W3C//DTD SVG 1.1//EN" "http://www.w3.org/Graphics/SVG/1.1/DTD/svg11.dtd">
<svg width="100%" height="100%" viewBox="0 0 181 209" version="1.1" xmlns="http://www.w3.org/2000/svg" xmlns:xlink="http://www.w3.org/1999/xlink" xml:space="preserve" style="fill-rule:evenodd;clip-rule:evenodd;stroke-linejoin:round;stroke-miterlimit:1.41421;">
    <g id="logo">
        <path id="template_outline" d="M0,51.944L90.197,0L181,51.944L181,157.056L90.803,209L0,157.056L0,51.944Z" style="fill:rgb(46,46,44);"/>
        <g id="template_outline1" transform="matrix(0.944751,-1.28845e-17,-1.3532e-17,0.952153,5,5)">
            <path d="M0,51.944L90.197,0L181,51.944L181,157.056L90.803,209L0,157.056L0,51.944Z" style="fill:white;"/>
        </g>
        <g transform="matrix(0.974885,0,0,0.974885,-9.76757,4.14409)">
            <g id="j" transform="matrix(0.952413,0,0,0.952413,4.74099,14.5191)">
                <path d="M43.354,142.307L57.206,133.845C59.878,138.628 62.309,142.674 68.14,142.674C73.729,142.674 77.252,140.467 77.252,131.882L77.252,73.498L94.262,73.498L94.262,132.125C94.262,149.91 83.935,158.005 68.869,158.005C55.262,158.005 47.363,150.891 43.354,142.306" style="fill:rgb(46,46,44);"/>
            </g>
            <g id="s" transform="matrix(0.952413,0,0,0.952413,4.74099,14.5191)">
                <path d="M103.501,140.467L117.35,132.372C120.996,138.383 125.735,142.798 134.118,142.798C141.166,142.798 145.66,139.241 145.66,134.334C145.66,128.447 141.043,126.362 133.267,122.928L129.016,121.087C116.743,115.814 108.603,109.191 108.603,95.208C108.603,82.33 118.323,72.517 133.51,72.517C144.324,72.517 152.099,76.319 157.688,86.254L144.444,94.84C141.528,89.566 138.37,87.481 133.51,87.481C128.529,87.481 125.37,90.67 125.37,94.84C125.37,99.992 128.529,102.077 135.818,105.266L140.07,107.106C154.529,113.362 162.669,119.739 162.669,134.089C162.669,149.544 150.641,158.007 134.482,158.007C118.687,158.007 108.481,150.403 103.501,140.467" style="fill:rgb(46,46,44);"/>
            </g>
        </g>
        <g transform="matrix(1,0,0,1,-7.68201,20.1443)">
            <path d="M39.54,54.457C44.23,54.457 45.665,52.217 45.665,49.487C45.665,46.337 42.935,45.322 40.765,44.832C38.735,44.377 37.79,44.272 37.79,43.432C37.79,42.837 38.315,42.557 39.4,42.557C40.52,42.557 41.57,43.082 42.27,43.677L44.79,40.982C43.565,39.722 41.815,38.917 39.365,38.917C36.18,38.917 33.59,40.282 33.59,43.642C33.59,46.757 35.865,47.877 37.895,48.402C40.31,49.032 41.255,49.032 41.255,49.837C41.255,50.467 40.765,50.747 39.225,50.747C37.825,50.747 36.53,50.152 35.515,49.172L32.75,51.622C34.045,53.162 36.075,54.457 39.54,54.457Z" style="fill:rgb(46,46,44);fill-rule:nonzero;"/>
            <path d="M54.66,54.527C56.83,54.527 58.09,53.757 58.825,53.162L57.04,49.872C56.725,50.082 56.165,50.502 55.395,50.502C54.66,50.502 54.17,50.187 54.17,48.682L54.17,43.152L57.985,43.152L57.985,39.232L54.17,39.232L54.17,31.462L49.48,31.462L49.48,39.232L47.275,39.232L47.275,43.152L49.48,43.152L49.48,48.542C49.48,53.022 51.65,54.527 54.66,54.527Z" style="fill:rgb(46,46,44);fill-rule:nonzero;"/>
            <path d="M70.55,45.287L67.085,45.287C63.41,45.287 60.995,46.582 60.995,49.767C60.995,53.232 63.515,54.457 66.245,54.457C68.24,54.457 69.535,53.792 70.655,52.077L70.55,54.142L75.24,54.142L75.24,45.672C75.24,40.982 72.335,38.917 68.52,38.917C65.02,38.917 63.445,40.002 62.045,41.367L64.67,44.167C65.335,43.572 66.28,42.802 68.065,42.802C69.64,42.802 70.48,43.572 70.55,45.287ZM70.55,48.087L70.55,48.682C70.55,49.942 69.57,50.782 67.645,50.782C66.315,50.782 65.615,50.292 65.615,49.452C65.615,48.612 66.14,48.087 67.33,48.087L70.55,48.087Z" style="fill:rgb(46,46,44);fill-rule:nonzero;"/>
            <path d="M78.845,54.142L83.57,54.142L83.57,46.162C83.57,44.272 84.69,43.222 86.58,43.222C88.26,43.222 89.065,44.167 89.065,45.847L89.065,54.142L93.79,54.142L93.79,45.532C93.79,41.297 91.445,38.917 88.19,38.917C86.125,38.917 84.375,39.897 83.465,41.682L83.57,39.232L78.845,39.232L78.845,54.142Z" style="fill:rgb(46,46,44);fill-rule:nonzero;"/>
            <path d="M103.66,54.457C105.935,54.457 107.51,53.547 108.35,51.972L108.245,54.142L112.97,54.142L112.97,28.872L108.245,28.872L108.245,41.332C107.3,39.862 105.97,38.917 103.59,38.917C99.985,38.917 96.905,42.067 96.905,46.652C96.905,51.237 100.02,54.457 103.66,54.457ZM105.025,50.327C103.03,50.327 101.77,48.997 101.77,46.652C101.77,44.447 103.03,43.082 105.025,43.082C107.055,43.082 108.385,44.447 108.385,46.652C108.385,48.997 107.055,50.327 105.025,50.327Z" style="fill:rgb(46,46,44);fill-rule:nonzero;"/>
            <path d="M125.465,45.287L122,45.287C118.325,45.287 115.91,46.582 115.91,49.767C115.91,53.232 118.43,54.457 121.16,54.457C123.155,54.457 124.45,53.792 125.57,52.077L125.465,54.142L130.155,54.142L130.155,45.672C130.155,40.982 127.25,38.917 123.435,38.917C119.935,38.917 118.36,40.002 116.96,41.367L119.585,44.167C120.25,43.572 121.195,42.802 122.98,42.802C124.555,42.802 125.395,43.572 125.465,45.287ZM125.465,48.087L125.465,48.682C125.465,49.942 124.485,50.782 122.56,50.782C121.23,50.782 120.53,50.292 120.53,49.452C120.53,48.612 121.055,48.087 122.245,48.087L125.465,48.087Z" style="fill:rgb(46,46,44);fill-rule:nonzero;"/>
            <path d="M133.76,54.142L138.485,54.142L138.485,47.527C138.485,44.342 139.64,43.362 141.775,43.362C142.44,43.362 143,43.537 143.595,43.817L145.1,39.512C144.505,39.197 143.77,38.917 142.79,38.917C141.25,38.917 139.5,39.477 138.415,41.927L138.485,39.232L133.76,39.232L133.76,54.142Z" style="fill:rgb(46,46,44);fill-rule:nonzero;"/>
            <path d="M153.22,54.457C155.495,54.457 157.07,53.547 157.91,51.972L157.805,54.142L162.53,54.142L162.53,28.872L157.805,28.872L157.805,41.332C156.86,39.862 155.53,38.917 153.15,38.917C149.545,38.917 146.465,42.067 146.465,46.652C146.465,51.237 149.58,54.457 153.22,54.457ZM154.585,50.327C152.59,50.327 151.33,48.997 151.33,46.652C151.33,44.447 152.59,43.082 154.585,43.082C156.615,43.082 157.945,44.447 157.945,46.652C157.945,48.997 156.615,50.327 154.585,50.327Z" style="fill:rgb(46,46,44);fill-rule:nonzero;"/>
        </g>
    </g>
</svg>
